<?xml version="1.0" standalone="no"?>
<!DOCTYPE svg PUBLIC "-//W3C//DTD SVG 20010904//EN"
 "http://www.w3.org/TR/2001/REC-SVG-20010904/DTD/svg10.dtd">
<svg version="1.0" xmlns="http://www.w3.org/2000/svg"
 width="292.000000pt" height="292.000000pt" viewBox="0 0 292.000000 292.000000"
 preserveAspectRatio="xMidYMid meet">
<metadata>
Created by potrace 1.14, written by Peter Selinger 2001-2017
</metadata>
<g transform="translate(0.000000,292.000000) scale(0.100000,-0.100000)"
fill="#000000" stroke="none">
<path d="M1009 2887 c-113 -78 -204 -189 -280 -342 -101 -203 -98 -402 7 -576
19 -31 34 -67 34 -81 0 -23 -43 -182 -100 -368 -39 -125 -63 -266 -63 -365 0
-165 81 -262 258 -306 32 -8 43 -15 36 -23 -5 -6 -24 -56 -41 -111 -18 -54
-48 -122 -66 -149 -19 -28 -34 -55 -34 -61 -1 -11 -141 -206 -272 -378 -49
-62 -88 -117 -88 -120 0 -4 47 -7 104 -7 l103 0 27 73 c27 73 150 277 167 277
11 0 12 -11 9 -112 -1 -44 6 -113 16 -158 l17 -80 323 0 322 0 -58 58 c-70 70
-79 102 -61 212 19 113 38 147 126 225 43 39 110 98 148 132 39 35 71 62 73
60 1 -1 -7 -36 -18 -77 -16 -58 -21 -108 -22 -220 -1 -134 1 -149 24 -200 13
-30 43 -78 67 -106 l42 -52 -44 -7 c-25 -3 -47 -10 -50 -16 -4 -5 133 -9 358
-9 l364 0 12 73 c6 39 17 92 23 117 14 56 33 80 24 30 -14 -85 -19 -220 -7
-220 6 0 12 18 12 43 l1 42 11 -42 c5 -24 14 -43 19 -43 6 0 7 8 3 18 -3 9 -9
29 -12 45 -3 15 -10 30 -14 33 -12 7 -11 74 0 74 5 0 12 -8 14 -18 4 -14 6
-14 12 6 14 44 26 21 25 -51 -1 -39 -1 -80 -1 -89 1 -16 14 -18 126 -18 69 0
125 2 125 5 0 4 -50 60 -177 198 -46 49 -83 94 -83 101 0 7 -34 46 -75 87 -42
41 -89 95 -106 122 -40 61 -48 60 -13 -3 48 -88 16 -171 -71 -184 -83 -13
-136 52 -193 238 -31 100 -35 126 -39 266 -5 151 5 233 42 345 6 16 5 17 -4 5
-9 -12 -11 -10 -11 12 0 22 9 34 41 54 129 81 150 86 252 57 42 -11 61 -22 65
-36 11 -42 85 -182 160 -303 77 -124 189 -284 198 -284 2 0 -14 29 -37 65 -23
36 -39 68 -37 71 4 4 102 -118 167 -207 7 -10 17 -19 22 -19 5 0 9 88 9 196 0
191 -1 196 -22 215 -13 10 -31 18 -41 19 -13 0 -9 -7 15 -29 18 -16 30 -32 27
-36 -4 -3 -65 52 -137 122 -214 211 -285 335 -432 761 -42 122 -66 162 -36 61
9 -29 16 -57 15 -63 -1 -19 -35 67 -50 124 -7 30 -20 61 -27 69 -8 8 -11 24
-7 40 3 17 2 21 -3 13 -11 -17 -25 39 -16 63 4 8 1 15 -6 15 -7 0 -10 7 -6 16
3 9 2 12 -5 9 -6 -4 -8 2 -6 17 2 12 2 17 0 10 -3 -7 -9 -9 -15 -6 -6 4 -8 2
-4 -4 3 -6 2 -13 -3 -16 -9 -6 -34 48 -45 101 -6 24 -3 34 11 41 16 10 16 13
0 66 -10 31 -20 56 -23 56 -3 0 -2 -26 1 -57 10 -84 -6 -58 -51 79 -21 64 -42
115 -46 112 -4 -3 -8 -38 -8 -77 0 -40 -4 -78 -9 -86 -12 -19 -26 83 -24 171
l2 67 -60 52 c-33 28 -59 48 -57 43 5 -17 -27 -50 -49 -51 -16 -1 -23 4 -23
16 0 10 -7 24 -15 31 -13 11 -15 7 -15 -22 0 -19 -6 -56 -14 -81 -8 -26 -12
-47 -9 -47 2 0 -2 -7 -11 -15 -21 -22 -24 -20 -31 28 -12 80 -22 94 -63 92
-46 -2 -62 10 -62 46 0 32 -3 34 -29 19 -11 -5 -18 -21 -19 -39 -1 -29 -21
-79 -22 -54 0 7 -6 10 -12 8 -9 -4 -13 5 -14 26 -1 16 -6 35 -13 42 -8 8 -11
-6 -11 -56 0 -59 -3 -68 -22 -78 -33 -17 -68 -51 -63 -60 7 -10 -83 -99 -101
-99 -8 0 -14 -4 -14 -10 0 -5 -9 -10 -20 -10 -11 0 -20 5 -20 10 0 6 -10 10
-22 10 -27 0 -85 51 -100 89 -6 14 -10 36 -9 49 3 26 -16 55 -30 46 -22 -13
-6 59 30 132 37 77 81 124 116 124 8 0 15 5 15 10 0 25 -50 7 -91 -32 -24 -23
-46 -42 -49 -43 -29 -9 -60 -27 -71 -42 -8 -11 -20 -23 -27 -27 -23 -14 4 28
42 66 50 49 69 63 83 60 7 -2 13 4 13 13 0 25 -41 17 -91 -18z m22 -109 c-20
-31 -21 -31 -19 -8 2 14 10 30 18 37 24 18 24 7 1 -29z m-110 -22 c-40 -64
-61 -144 -61 -233 0 -79 -11 -107 -25 -63 -3 11 -11 20 -17 20 -16 0 -1 112
24 178 17 46 79 132 95 132 3 0 -5 -15 -16 -34z m-6 -85 c-3 -12 -11 -21 -16
-21 -6 0 -8 3 -6 8 2 4 7 16 11 26 9 25 20 13 11 -13z m925 -335 c0 -3 -4 -8
-10 -11 -5 -3 -10 -1 -10 4 0 6 5 11 10 11 6 0 10 -2 10 -4z m-35 -56 c-7 -22
5 -26 23 -8 18 18 14 2 -8 -34 -24 -39 -26 -84 -5 -92 8 -3 15 -14 15 -25 0
-15 5 -19 18 -14 13 5 12 1 -6 -19 -20 -22 -21 -38 -1 -38 5 0 25 15 46 33 20
17 34 28 31 22 -3 -5 -15 -41 -27 -79 -12 -37 -49 -125 -83 -195 -66 -136
-138 -318 -159 -400 -11 -43 -21 -58 -59 -86 -25 -19 -67 -52 -94 -74 -27 -21
-66 -44 -87 -51 -49 -16 -57 -11 -212 134 -125 118 -177 188 -219 296 -14 36
-28 72 -32 80 -3 8 -3 -7 0 -34 5 -46 5 -49 -11 -36 -26 22 -91 124 -99 155
-6 25 -5 27 8 16 14 -11 16 -11 16 6 0 10 -6 25 -12 32 -11 10 -8 11 13 6 52
-13 56 42 9 132 -35 68 -35 66 -11 53 11 -5 31 -10 45 -10 23 0 25 -2 16 -25
-15 -39 6 -40 45 0 38 38 66 46 59 18 -3 -10 5 -33 16 -50 17 -28 26 -33 59
-33 44 0 56 11 65 62 4 20 12 38 18 40 7 3 6 11 -3 28 -19 35 -29 40 -71 40
-20 0 -39 4 -42 9 -7 10 27 21 65 21 14 0 30 5 37 12 8 8 27 -3 76 -46 52 -46
67 -65 74 -99 l10 -42 3 35 c1 19 1 44 0 54 -1 19 -1 19 19 1 16 -15 20 -15
20 -3 0 11 8 13 30 10 25 -3 29 -8 25 -23 -10 -30 16 -23 59 16 22 19 44 35
50 35 6 0 0 -9 -14 -20 -29 -23 -16 -26 20 -5 35 20 38 19 45 -15 7 -32 47
-70 75 -70 23 0 96 54 111 81 9 18 9 25 -5 34 -9 7 -16 21 -16 31 0 13 -3 15
-8 7 -5 -8 -13 -9 -22 -3 -8 6 -31 10 -50 11 -19 0 -44 4 -55 9 -18 8 -17 9 7
9 15 1 30 6 34 12 4 8 -9 10 -44 8 -43 -4 -49 -2 -42 12 15 26 43 46 47 32 3
-7 18 -10 41 -7 66 9 77 13 106 39 35 30 50 32 41 5z m-655 -80 c12 -8 12 -10
-3 -16 -20 -7 -47 1 -47 16 0 12 30 13 50 0z m760 -45 c-7 -9 -15 -13 -18 -10
-3 2 1 11 8 20 7 9 15 13 18 10 3 -2 -1 -11 -8 -20z m-875 -13 c-3 -3 -11 0
-18 7 -9 10 -8 11 6 5 10 -3 15 -9 12 -12z m945 4 c0 -41 -53 -141 -70 -131
-9 5 13 93 31 128 11 20 39 23 39 3z m-966 -41 c-16 -6 -35 -19 -43 -28 -7
-10 -17 -17 -22 -17 -9 0 -13 53 -5 61 3 2 26 3 52 0 l48 -3 -30 -13z m396 5
c0 -5 -4 -10 -10 -10 -5 0 -10 5 -10 10 0 6 5 10 10 10 6 0 10 -4 10 -10z
m271 0 c10 0 19 -7 19 -15 0 -17 -32 -20 -61 -4 -22 11 -15 34 8 25 8 -3 23
-6 34 -6z m-214 -6 c-3 -3 -12 -4 -19 -1 -8 3 -5 6 6 6 11 1 17 -2 13 -5z
m-327 -40 c0 -2 -19 -4 -41 -4 -35 0 -40 2 -30 14 10 11 19 12 42 4 16 -5 29
-12 29 -14z m920 -73 c0 -30 -13 -76 -36 -128 -8 -17 -14 -36 -14 -42 0 -6 -7
-11 -15 -11 -8 0 -15 4 -15 8 0 18 40 163 50 182 15 29 30 25 30 -9z m-168
-83 c-74 -140 -168 -431 -192 -597 -20 -131 1 -246 46 -257 25 -7 33 -24 11
-24 -18 0 -84 51 -92 70 -14 33 -17 161 -5 226 19 104 75 274 137 414 31 69
65 145 75 170 18 40 54 90 66 90 2 0 -18 -42 -46 -92z m64 -34 c-13 -43 -41
-124 -61 -179 -20 -55 -44 -140 -55 -190 -10 -49 -19 -76 -19 -60 -1 47 45
234 73 298 14 32 31 78 36 103 13 55 38 119 45 112 3 -3 -6 -40 -19 -84z m233
-63 c44 -73 108 -188 142 -255 45 -89 72 -130 103 -155 l41 -34 -68 7 c-37 4
-79 11 -93 17 -15 5 -43 12 -63 15 -39 6 -86 28 -96 44 -9 14 7 12 105 -9 47
-11 87 -17 89 -15 2 2 -35 84 -84 182 -157 316 -165 333 -165 339 0 11 6 1 89
-136z m-213 -78 c-7 -7 -26 7 -26 19 0 6 6 6 15 -2 9 -7 13 -15 11 -17z
m-1123 -18 c4 -8 2 -17 -3 -20 -6 -4 -10 3 -10 14 0 25 6 27 13 6z m79 -78 c7
4 9 -2 5 -16 -3 -13 -1 -34 5 -46 8 -18 6 -44 -11 -112 -28 -116 -28 -157 1
-177 29 -20 49 -20 86 1 35 20 62 61 62 93 0 11 5 18 10 15 14 -9 12 -42 -4
-68 -8 -12 -29 -65 -47 -117 -17 -52 -44 -124 -60 -158 -30 -66 -29 -83 6
-112 9 -7 23 -26 31 -41 l14 -28 -32 10 c-70 20 -195 121 -229 185 -15 28 -34
91 -45 148 -17 95 -17 105 -1 199 20 119 42 166 31 67 -14 -123 -11 -223 8
-249 17 -25 18 -24 17 45 -1 91 15 185 52 302 17 54 33 100 36 105 2 4 16 -6
30 -23 13 -17 30 -27 35 -23z m1048 25 c9 2 18 -14 26 -47 21 -86 19 -95 -20
-95 -30 0 -34 4 -40 31 -13 68 -4 148 14 119 4 -6 13 -10 20 -8z m-79 -112
c-5 -30 -13 -89 -16 -130 -9 -121 -16 -160 -26 -160 -5 0 -9 49 -9 113 0 110
16 213 41 272 l13 30 4 -35 c2 -19 -1 -60 -7 -90z m-934 38 c-3 -8 -6 -5 -6 6
-1 11 2 17 5 13 3 -3 4 -12 1 -19z m23 -64 c14 -36 13 -217 -1 -231 -9 -9 -19
-8 -40 3 -34 17 -38 53 -14 119 8 22 18 61 21 88 7 52 20 60 34 21z m1025 -33
c-3 -6 -11 -8 -17 -5 -6 4 -5 9 3 15 16 10 23 4 14 -10z m-969 -56 c19 -47 18
-78 -6 -106 l-19 -24 -1 83 c0 45 2 82 6 82 3 0 12 -16 20 -35z m1042 -37 c52
-51 69 -74 60 -80 -18 -11 -22 -10 -51 12 -30 24 -97 113 -97 129 0 22 17 10
88 -61z m-947 -54 c12 -14 11 -16 -5 -13 -11 2 -21 10 -24 17 -5 17 13 15 29
-4z m-471 2 c0 -3 -7 -35 -16 -73 -9 -39 -14 -94 -12 -130 2 -35 1 -63 -4 -63
-13 0 -20 69 -14 138 11 106 17 132 32 132 8 0 14 -2 14 -4z m1812 -84 c24
-42 49 -90 56 -105 21 -50 13 -53 -19 -7 -40 59 -84 143 -81 154 2 5 -5 17
-15 28 -14 16 -15 18 -1 13 9 -4 36 -41 60 -83z m-878 22 c3 -9 6 -37 7 -62 0
-34 3 -41 8 -27 6 15 9 6 13 -32 6 -62 27 -97 75 -125 l35 -21 -36 -18 c-72
-35 -104 -60 -120 -94 -10 -19 -14 -40 -11 -45 3 -5 -1 -31 -10 -56 -9 -26
-14 -49 -11 -51 6 -6 42 57 55 97 29 90 103 159 175 161 23 1 31 4 19 6 -13 2
-23 9 -23 14 0 6 10 9 23 7 18 -2 22 -9 20 -38 -3 -59 -24 -114 -57 -142 -30
-28 -30 -28 -6 -28 19 0 21 -3 12 -12 -16 -16 -15 -31 1 -22 7 4 9 3 4 -2 -5
-5 -12 -9 -16 -9 -8 0 -228 -204 -357 -330 -78 -77 -102 -97 -180 -150 -35
-24 -74 -25 -54 -1 7 9 3 12 -18 9 -39 -5 -77 18 -78 47 -1 14 -8 39 -17 55
-9 17 -17 46 -17 65 0 31 20 130 36 184 4 13 2 16 -6 11 -8 -5 -11 -3 -8 6 3
8 11 13 18 11 7 -2 10 3 7 11 -3 7 3 24 12 36 17 23 20 23 162 18 79 -3 159
-9 176 -12 33 -7 33 -7 26 26 -3 19 -16 50 -28 69 -12 19 -32 58 -45 85 -28
63 -36 46 -16 -33 9 -33 16 -65 16 -71 0 -6 -20 -11 -47 -12 -37 -1 -42 -3
-23 -8 24 -7 24 -7 -9 -14 -18 -4 -43 -6 -55 -6 -16 1 -14 3 9 10 26 7 24 8
-12 5 -24 -2 -43 -1 -43 2 0 17 41 72 50 67 5 -3 12 6 16 21 7 27 -1 237 -12
329 l-6 50 44 -42 c34 -34 51 -43 78 -43 35 0 48 7 150 80 63 45 66 46 74 24z
m451 -14 c-3 -5 -11 -10 -16 -10 -6 0 -7 5 -4 10 3 6 11 10 16 10 6 0 7 -4 4
-10z m-133 -164 c10 6 10 4 -1 -9 -10 -13 -17 -15 -27 -6 -8 6 -14 19 -14 28
1 14 3 13 15 -3 8 -11 19 -15 27 -10z m-682 -37 c0 -45 -41 -182 -59 -196 -30
-25 -29 -11 5 84 19 54 34 108 34 120 0 13 5 23 10 23 6 0 10 -14 10 -31z
m-322 -165 c20 -9 31 -18 24 -21 -7 -3 -27 5 -45 16 -39 25 -30 27 21 5z m342
12 c0 -3 -4 -8 -10 -11 -5 -3 -10 -1 -10 4 0 6 5 11 10 11 6 0 10 -2 10 -4z
m140 -126 c0 -5 -4 -10 -9 -10 -6 0 -13 5 -16 10 -3 6 1 10 9 10 9 0 16 -4 16
-10z m-415 -149 c-43 -50 -79 -91 -81 -91 -10 0 42 103 56 110 10 5 34 26 54
46 67 67 49 27 -29 -65z m-125 -130 c0 -5 -7 -14 -15 -21 -16 -14 -18 -10 -9
14 6 17 24 22 24 7z m-50 -45 c0 -2 -8 -10 -17 -17 -16 -13 -17 -12 -4 4 13
16 21 21 21 13z m562 -98 c-6 -6 -15 -8 -19 -4 -4 4 -1 11 7 16 19 12 27 3 12
-12z m315 -60 c-2 -18 -4 -6 -4 27 0 33 2 48 4 33 2 -15 2 -42 0 -60z m733 42
c0 -5 -5 -10 -11 -10 -5 0 -7 5 -4 10 3 6 8 10 11 10 2 0 4 -4 4 -10z m190
-170 c9 -16 8 -18 -5 -14 -8 4 -15 12 -15 20 0 20 7 17 20 -6z m65 -70 c10
-11 14 -20 9 -20 -5 0 -15 9 -22 20 -7 11 -11 20 -9 20 2 0 12 -9 22 -20z"/>
<path d="M1294 1857 c-43 -67 -49 -130 -15 -152 18 -11 32 4 22 24 -7 12 -5
34 5 69 9 29 14 61 12 72 -3 17 -6 15 -24 -13z"/>
<path d="M1380 1730 c0 -5 7 -10 16 -10 8 0 12 5 9 10 -3 6 -10 10 -16 10 -5
0 -9 -4 -9 -10z"/>
<path d="M1372 1574 c-53 -14 -97 -33 -90 -39 1 -1 32 3 68 11 36 7 93 14 128
14 66 0 83 13 31 24 -45 9 -77 7 -137 -10z"/>
<path d="M1430 692 c-75 -37 -169 -132 -208 -211 -18 -35 -32 -74 -32 -85 1
-13 12 4 29 39 51 112 132 200 232 255 68 37 52 39 -21 2z"/>
<path d="M1930 2780 c12 -16 24 -30 26 -30 3 0 -4 14 -16 30 -12 17 -24 30
-26 30 -3 0 4 -13 16 -30z"/>
<path d="M2500 1436 c0 -2 8 -10 18 -17 15 -13 16 -12 3 4 -13 16 -21 21 -21
13z"/>
<path d="M2165 1237 c-26 -62 -38 -138 -32 -206 4 -56 16 -87 84 -222 43 -86
81 -155 84 -153 3 2 21 -17 38 -41 55 -76 43 -50 -18 42 -37 54 -57 94 -54
107 3 19 3 19 -5 2 -6 -14 -14 0 -35 62 -15 44 -28 90 -28 103 -1 21 -2 20 -8
-6 l-8 -30 -14 45 c-20 63 -18 222 4 280 20 54 13 68 -8 17z"/>
<path d="M2182 1030 c0 -14 2 -19 5 -12 2 6 2 18 0 25 -3 6 -5 1 -5 -13z"/>
<path d="M792 130 c0 -14 2 -19 5 -12 2 6 2 18 0 25 -3 6 -5 1 -5 -13z"/>
<path d="M2877 80 c-32 -64 -35 -76 -21 -78 9 -2 21 2 25 10 8 11 11 10 18 -2
17 -25 22 -5 19 71 l-3 74 -38 -75z"/>
<path d="M801 80 c0 -8 4 -24 9 -35 5 -13 9 -14 9 -5 0 8 -4 24 -9 35 -5 13
-9 14 -9 5z"/>
</g>
</svg>
