<?xml version="1.0" encoding="utf-8"?>
<!-- Generator: Adobe Illustrator 22.0.1, SVG Export Plug-In . SVG Version: 6.00 Build 0)  -->
<svg version="1.2" baseProfile="tiny" id="Vulkan" xmlns="http://www.w3.org/2000/svg" xmlns:xlink="http://www.w3.org/1999/xlink"
	 x="0px" y="0px" width="1248.5px" height="564.5px" viewBox="0 0 1248.5 564.5" xml:space="preserve">
<g>
	<path fill="#AC162C" d="M696,353.5h-40.6c0,0,0-99,0-129.7c13,7.2,30.1,20.5,40.6,33.3V353.5z"/>
	<g>
		<path fill="#AC162C" d="M353.6,353.5H303l-66-204h46l45.4,143.5h0.6l46-143.5h46.3L353.6,353.5z"/>
		<path fill="#AC162C" d="M557.4,353.5h-38.6v-20.6h-0.9c-5.1,8.6-11.8,14.8-20,18.6c-8.2,3.8-16.6,5.7-25.1,5.7
			c-10.9,0-19.8-1.4-26.7-4.3c-7-2.9-12.4-6.9-16.4-12.1c-4-5.2-6.8-11.6-8.4-19.1c-1.6-7.5-2.4-15.9-2.4-25v-90.9h40.6v83.4
			c0,12.2,1.9,21.3,5.7,27.3c3.8,6,10.6,9,20.3,9c11,0,19.1-3.3,24-9.9c5-6.6,7.4-17.4,7.4-32.4v-77.4h40.6V353.5z"/>
	</g>
	<polygon fill="#AC162C" points="702.7,264.6 702.6,258.9 753.7,205.8 801.8,205.8 746,260.1 808,353.5 758.9,353.5 	"/>
	<path fill="#AC162C" d="M815.5,251.2c0.6-9.5,3-17.4,7.2-23.7c4.2-6.3,9.5-11.3,16-15.1c6.5-3.8,13.8-6.5,21.9-8.1
		c8.1-1.6,16.2-2.4,24.4-2.4c7.4,0,15,0.5,22.6,1.6c7.6,1.1,14.6,3.1,20.9,6.1c6.3,3.1,11.4,7.3,15.4,12.7c4,5.4,6,12.6,6,21.6v76.9
		c0,6.7,0.4,13.1,1.1,19.1c0.8,6.1,2.1,10.7,4,13.7h-41.2c-0.8-2.3-1.4-4.6-1.9-7c-0.5-2.4-0.8-4.8-1-7.3
		c-6.5,6.7-14.1,11.3-22.9,14c-8.8,2.7-17.7,4-26.9,4c-7,0-13.6-0.9-19.7-2.6c-6.1-1.7-11.4-4.4-16-8c-4.6-3.6-8.2-8.2-10.7-13.7
		c-2.6-5.5-3.9-12.1-3.9-19.7c0-8.4,1.5-15.3,4.4-20.7c3-5.4,6.8-9.8,11.4-13c4.7-3.2,10-5.7,16-7.3c6-1.6,12-2.9,18.1-3.9
		c6.1-0.9,12.1-1.7,18-2.3c5.9-0.6,11.1-1.4,15.7-2.6c4.6-1.1,8.2-2.8,10.9-5c2.7-2.2,3.9-5.4,3.7-9.6c0-4.4-0.7-7.9-2.2-10.4
		c-1.4-2.6-3.3-4.6-5.7-6c-2.4-1.4-5.1-2.4-8.3-2.9c-3.1-0.5-6.5-0.7-10.1-0.7c-8,0-14.3,1.7-18.9,5.1c-4.6,3.4-7.2,9.1-8,17.1
		H815.5z M909.2,281.2c-1.7,1.5-3.9,2.7-6.4,3.6c-2.6,0.9-5.3,1.6-8.3,2.2c-3,0.6-6,1-9.3,1.4c-3.2,0.4-6.5,0.9-9.7,1.4
		c-3,0.6-6,1.3-9,2.3c-3,1-5.5,2.2-7.7,3.9c-2.2,1.6-4,3.7-5.3,6.1c-1.3,2.5-2,5.6-2,9.4c0,3.6,0.7,6.7,2,9.1
		c1.3,2.5,3.1,4.4,5.4,5.9c2.3,1.4,5,2.4,8,3c3.1,0.6,6.2,0.9,9.4,0.9c8,0,14.2-1.3,18.6-4c4.4-2.7,7.6-5.9,9.7-9.6
		c2.1-3.7,3.4-7.5,3.9-11.3c0.5-3.8,0.7-6.9,0.7-9.1V281.2z"/>
	<path fill="#AC162C" d="M976.1,205.8h38.6v20.6h0.9c5.1-8.6,11.8-14.8,20-18.7c8.2-3.9,16.6-5.9,25.1-5.9c10.9,0,19.8,1.5,26.7,4.4
		c7,3,12.4,7.1,16.4,12.3c4,5.2,6.8,11.6,8.4,19.1c1.6,7.5,2.4,15.9,2.4,25v90.9h-40.6V270c0-12.2-1.9-21.3-5.7-27.3
		c-3.8-6-10.6-9-20.3-9c-11,0-19,3.3-24,9.9c-5,6.6-7.4,17.4-7.4,32.4v77.4h-40.6V205.8z"/>
	<g>
		<path fill="#AC162C" d="M584.2,180.3v173.2h40.6V202.6C611.8,194.7,598.2,187.2,584.2,180.3z"/>
	</g>
	<path fill="#AC162C" d="M170.3,187.6c23.5-68.9,164.2-94.2,314.1-56.4c90,22.6,163.5,66.5,211.5,109.9
		C674.2,183.5,568.5,101.5,423,73.4C258.6,41.6,96.3,69.5,76.3,142.5C61.7,195.3,125.4,257,223.9,299.3
		C179.7,263.5,158.1,223.2,170.3,187.6z"/>
	<g>
		<path fill="#AC162C" d="M696,216v-66.6h-40.6v20.2C672.7,185.1,686.5,200.9,696,216z"/>
	</g>
</g>
<g>
	<path fill="#AC162C" d="M696,353.5h-40.6c0,0,0-99,0-129.7c13,7.2,30.1,20.5,40.6,33.3V353.5z"/>
	<g>
		<path fill="#AC162C" d="M353.6,353.5H303l-66-204h46l45.4,143.5h0.6l46-143.5h46.3L353.6,353.5z"/>
		<path fill="#AC162C" d="M557.4,353.5h-38.6v-20.6h-0.9c-5.1,8.6-11.8,14.8-20,18.6c-8.2,3.8-16.6,5.7-25.1,5.7
			c-10.9,0-19.8-1.4-26.7-4.3c-7-2.9-12.4-6.9-16.4-12.1c-4-5.2-6.8-11.6-8.4-19.1c-1.6-7.5-2.4-15.9-2.4-25v-90.9h40.6v83.4
			c0,12.2,1.9,21.3,5.7,27.3c3.8,6,10.6,9,20.3,9c11,0,19.1-3.3,24-9.9c5-6.6,7.4-17.4,7.4-32.4v-77.4h40.6V353.5z"/>
	</g>
	<polygon fill="#AC162C" points="702.7,264.6 702.6,258.9 753.7,205.8 801.8,205.8 746,260.1 808,353.5 758.9,353.5 	"/>
	<path fill="#AC162C" d="M815.5,251.2c0.6-9.5,3-17.4,7.2-23.7c4.2-6.3,9.5-11.3,16-15.1c6.5-3.8,13.8-6.5,21.9-8.1
		c8.1-1.6,16.2-2.4,24.4-2.4c7.4,0,15,0.5,22.6,1.6c7.6,1.1,14.6,3.1,20.9,6.1c6.3,3.1,11.4,7.3,15.4,12.7c4,5.4,6,12.6,6,21.6v76.9
		c0,6.7,0.4,13.1,1.1,19.1c0.8,6.1,2.1,10.7,4,13.7h-41.2c-0.8-2.3-1.4-4.6-1.9-7c-0.5-2.4-0.8-4.8-1-7.3
		c-6.5,6.7-14.1,11.3-22.9,14c-8.8,2.7-17.7,4-26.9,4c-7,0-13.6-0.9-19.7-2.6c-6.1-1.7-11.4-4.4-16-8c-4.6-3.6-8.2-8.2-10.7-13.7
		c-2.6-5.5-3.9-12.1-3.9-19.7c0-8.4,1.5-15.3,4.4-20.7c3-5.4,6.8-9.8,11.4-13c4.7-3.2,10-5.7,16-7.3c6-1.6,12-2.9,18.1-3.9
		c6.1-0.9,12.1-1.7,18-2.3c5.9-0.6,11.1-1.4,15.7-2.6c4.6-1.1,8.2-2.8,10.9-5c2.7-2.2,3.9-5.4,3.7-9.6c0-4.4-0.7-7.9-2.2-10.4
		c-1.4-2.6-3.3-4.6-5.7-6c-2.4-1.4-5.1-2.4-8.3-2.9c-3.1-0.5-6.5-0.7-10.1-0.7c-8,0-14.3,1.7-18.9,5.1c-4.6,3.4-7.2,9.1-8,17.1
		H815.5z M909.2,281.2c-1.7,1.5-3.9,2.7-6.4,3.6c-2.6,0.9-5.3,1.6-8.3,2.2c-3,0.6-6,1-9.3,1.4c-3.2,0.4-6.5,0.9-9.7,1.4
		c-3,0.6-6,1.3-9,2.3c-3,1-5.5,2.2-7.7,3.9c-2.2,1.6-4,3.7-5.3,6.1c-1.3,2.5-2,5.6-2,9.4c0,3.6,0.7,6.7,2,9.1
		c1.3,2.5,3.1,4.4,5.4,5.9c2.3,1.4,5,2.4,8,3c3.1,0.6,6.2,0.9,9.4,0.9c8,0,14.2-1.3,18.6-4c4.4-2.7,7.6-5.9,9.7-9.6
		c2.1-3.7,3.4-7.5,3.9-11.3c0.5-3.8,0.7-6.9,0.7-9.1V281.2z"/>
	<path fill="#AC162C" d="M976.1,205.8h38.6v20.6h0.9c5.1-8.6,11.8-14.8,20-18.7c8.2-3.9,16.6-5.9,25.1-5.9c10.9,0,19.8,1.5,26.7,4.4
		c7,3,12.4,7.1,16.4,12.3c4,5.2,6.8,11.6,8.4,19.1c1.6,7.5,2.4,15.9,2.4,25v90.9h-40.6V270c0-12.2-1.9-21.3-5.7-27.3
		c-3.8-6-10.6-9-20.3-9c-11,0-19,3.3-24,9.9c-5,6.6-7.4,17.4-7.4,32.4v77.4h-40.6V205.8z"/>
	<g>
		<path fill="#AC162C" d="M584.2,180.3v173.2h40.6V202.6C611.8,194.7,598.2,187.2,584.2,180.3z"/>
	</g>
	<path fill="#AC162C" d="M170.3,187.6c23.5-68.9,164.2-94.2,314.1-56.4c90,22.6,163.5,66.5,211.5,109.9
		C674.2,183.5,568.5,101.5,423,73.4C258.6,41.6,96.3,69.5,76.3,142.5C61.7,195.3,125.4,257,223.9,299.3
		C179.7,263.5,158.1,223.2,170.3,187.6z"/>
	<g>
		<path fill="#AC162C" d="M696,216v-66.6h-40.6v20.2C672.7,185.1,686.5,200.9,696,216z"/>
	</g>
</g>
<g>
	<path fill="#AC162C" d="M1186.8,331.9c0,12.3-9.6,21.9-22.2,21.9c-12.4,0-22.3-9.6-22.3-21.9c0-12,9.9-21.6,22.3-21.6
		C1177.2,310.2,1186.8,319.9,1186.8,331.9z M1147.9,331.9c0,9.6,7.1,17.3,16.9,17.3c9.5,0,16.5-7.6,16.5-17.1
		c0-9.6-7-17.4-16.6-17.4C1155.1,314.6,1147.9,322.4,1147.9,331.9z M1161.3,343.2h-5v-21.6c2-0.4,4.7-0.7,8.3-0.7
		c4.1,0,5.9,0.7,7.5,1.6c1.2,0.9,2.1,2.6,2.1,4.7c0,2.4-1.8,4.2-4.5,5v0.3c2.1,0.8,3.3,2.4,4,5.3c0.7,3.3,1.1,4.6,1.6,5.4h-5.4
		c-0.7-0.8-1.1-2.8-1.7-5.3c-0.4-2.4-1.7-3.4-4.5-3.4h-2.4V343.2z M1161.4,330.9h2.4c2.8,0,5-0.9,5-3.2c0-2-1.5-3.3-4.6-3.3
		c-1.3,0-2.2,0.1-2.8,0.3V330.9z"/>
</g>
<g>
	<path fill="#AC162C" d="M696,353.5h-40.6c0,0,0-99,0-129.7c13,7.2,30.1,20.5,40.6,33.3V353.5z"/>
	<g>
		<path fill="#AC162C" d="M353.6,353.5H303l-66-204h46l45.4,143.5h0.6l46-143.5h46.3L353.6,353.5z"/>
		<path fill="#AC162C" d="M557.4,353.5h-38.6v-20.6h-0.9c-5.1,8.6-11.8,14.8-20,18.6c-8.2,3.8-16.6,5.7-25.1,5.7
			c-10.9,0-19.8-1.4-26.7-4.3c-7-2.9-12.4-6.9-16.4-12.1c-4-5.2-6.8-11.6-8.4-19.1c-1.6-7.5-2.4-15.9-2.4-25v-90.9h40.6v83.4
			c0,12.2,1.9,21.3,5.7,27.3c3.8,6,10.6,9,20.3,9c11,0,19.1-3.3,24-9.9c5-6.6,7.4-17.4,7.4-32.4v-77.4h40.6V353.5z"/>
	</g>
	<polygon fill="#AC162C" points="702.7,264.6 702.6,258.9 753.7,205.8 801.8,205.8 746,260.1 808,353.5 758.9,353.5 	"/>
	<path fill="#AC162C" d="M815.5,251.2c0.6-9.5,3-17.4,7.2-23.7c4.2-6.3,9.5-11.3,16-15.1c6.5-3.8,13.8-6.5,21.9-8.1
		c8.1-1.6,16.2-2.4,24.4-2.4c7.4,0,15,0.5,22.6,1.6c7.6,1.1,14.6,3.1,20.9,6.1c6.3,3.1,11.4,7.3,15.4,12.7c4,5.4,6,12.6,6,21.6v76.9
		c0,6.7,0.4,13.1,1.1,19.1c0.8,6.1,2.1,10.7,4,13.7h-41.2c-0.8-2.3-1.4-4.6-1.9-7c-0.5-2.4-0.8-4.8-1-7.3
		c-6.5,6.7-14.1,11.3-22.9,14c-8.8,2.7-17.7,4-26.9,4c-7,0-13.6-0.9-19.7-2.6c-6.1-1.7-11.4-4.4-16-8c-4.6-3.6-8.2-8.2-10.7-13.7
		c-2.6-5.5-3.9-12.1-3.9-19.7c0-8.4,1.5-15.3,4.4-20.7c3-5.4,6.8-9.8,11.4-13c4.7-3.2,10-5.7,16-7.3c6-1.6,12-2.9,18.1-3.9
		c6.1-0.9,12.1-1.7,18-2.3c5.9-0.6,11.1-1.4,15.7-2.6c4.6-1.1,8.2-2.8,10.9-5c2.7-2.2,3.9-5.4,3.7-9.6c0-4.4-0.7-7.9-2.2-10.4
		c-1.4-2.6-3.3-4.6-5.7-6c-2.4-1.4-5.1-2.4-8.3-2.9c-3.1-0.5-6.5-0.7-10.1-0.7c-8,0-14.3,1.7-18.9,5.1c-4.6,3.4-7.2,9.1-8,17.1
		H815.5z M909.2,281.2c-1.7,1.5-3.9,2.7-6.4,3.6c-2.6,0.9-5.3,1.6-8.3,2.2c-3,0.6-6,1-9.3,1.4c-3.2,0.4-6.5,0.9-9.7,1.4
		c-3,0.6-6,1.3-9,2.3c-3,1-5.5,2.2-7.7,3.9c-2.2,1.6-4,3.7-5.3,6.1c-1.3,2.5-2,5.6-2,9.4c0,3.6,0.7,6.7,2,9.1
		c1.3,2.5,3.1,4.4,5.4,5.9c2.3,1.4,5,2.4,8,3c3.1,0.6,6.2,0.9,9.4,0.9c8,0,14.2-1.3,18.6-4c4.4-2.7,7.6-5.9,9.7-9.6
		c2.1-3.7,3.4-7.5,3.9-11.3c0.5-3.8,0.7-6.9,0.7-9.1V281.2z"/>
	<path fill="#AC162C" d="M976.1,205.8h38.6v20.6h0.9c5.1-8.6,11.8-14.8,20-18.7c8.2-3.9,16.6-5.9,25.1-5.9c10.9,0,19.8,1.5,26.7,4.4
		c7,3,12.4,7.1,16.4,12.3c4,5.2,6.8,11.6,8.4,19.1c1.6,7.5,2.4,15.9,2.4,25v90.9h-40.6V270c0-12.2-1.9-21.3-5.7-27.3
		c-3.8-6-10.6-9-20.3-9c-11,0-19,3.3-24,9.9c-5,6.6-7.4,17.4-7.4,32.4v77.4h-40.6V205.8z"/>
	<g>
		<path fill="#AC162C" d="M584.2,180.3v173.2h40.6V202.6C611.8,194.7,598.2,187.2,584.2,180.3z"/>
	</g>
	<path fill="#AC162C" d="M170.3,187.6c23.5-68.9,164.2-94.2,314.1-56.4c90,22.6,163.5,66.5,211.5,109.9
		C674.2,183.5,568.5,101.5,423,73.4C258.6,41.6,96.3,69.5,76.3,142.5C61.7,195.3,125.4,257,223.9,299.3
		C179.7,263.5,158.1,223.2,170.3,187.6z"/>
	<g>
		<path fill="#AC162C" d="M696,216v-66.6h-40.6v20.2C672.7,185.1,686.5,200.9,696,216z"/>
	</g>
</g>
<g>
	<path fill="#AC162C" d="M696,353.5h-40.6c0,0,0-99,0-129.7c13,7.2,30.1,20.5,40.6,33.3V353.5z"/>
	<g>
		<path fill="#AC162C" d="M353.6,353.5H303l-66-204h46l45.4,143.5h0.6l46-143.5h46.3L353.6,353.5z"/>
		<path fill="#AC162C" d="M557.4,353.5h-38.6v-20.6h-0.9c-5.1,8.6-11.8,14.8-20,18.6c-8.2,3.8-16.6,5.7-25.1,5.7
			c-10.9,0-19.8-1.4-26.7-4.3c-7-2.9-12.4-6.9-16.4-12.1c-4-5.2-6.8-11.6-8.4-19.1c-1.6-7.5-2.4-15.9-2.4-25v-90.9h40.6v83.4
			c0,12.2,1.9,21.3,5.7,27.3c3.8,6,10.6,9,20.3,9c11,0,19.1-3.3,24-9.9c5-6.6,7.4-17.4,7.4-32.4v-77.4h40.6V353.5z"/>
	</g>
	<polygon fill="#AC162C" points="702.7,264.6 702.6,258.9 753.7,205.8 801.8,205.8 746,260.1 808,353.5 758.9,353.5 	"/>
	<path fill="#AC162C" d="M815.5,251.2c0.6-9.5,3-17.4,7.2-23.7c4.2-6.3,9.5-11.3,16-15.1c6.5-3.8,13.8-6.5,21.9-8.1
		c8.1-1.6,16.2-2.4,24.4-2.4c7.4,0,15,0.5,22.6,1.6c7.6,1.1,14.6,3.1,20.9,6.1c6.3,3.1,11.4,7.3,15.4,12.7c4,5.4,6,12.6,6,21.6v76.9
		c0,6.7,0.4,13.1,1.1,19.1c0.8,6.1,2.1,10.7,4,13.7h-41.2c-0.8-2.3-1.4-4.6-1.9-7c-0.5-2.4-0.8-4.8-1-7.3
		c-6.5,6.7-14.1,11.3-22.9,14c-8.8,2.7-17.7,4-26.9,4c-7,0-13.6-0.9-19.7-2.6c-6.1-1.7-11.4-4.4-16-8c-4.6-3.6-8.2-8.2-10.7-13.7
		c-2.6-5.5-3.9-12.1-3.9-19.7c0-8.4,1.5-15.3,4.4-20.7c3-5.4,6.8-9.8,11.4-13c4.7-3.2,10-5.7,16-7.3c6-1.6,12-2.9,18.1-3.9
		c6.1-0.9,12.1-1.7,18-2.3c5.9-0.6,11.1-1.4,15.7-2.6c4.6-1.1,8.2-2.8,10.9-5c2.7-2.2,3.9-5.4,3.7-9.6c0-4.4-0.7-7.9-2.2-10.4
		c-1.4-2.6-3.3-4.6-5.7-6c-2.4-1.4-5.1-2.4-8.3-2.9c-3.1-0.5-6.5-0.7-10.1-0.7c-8,0-14.3,1.7-18.9,5.1c-4.6,3.4-7.2,9.1-8,17.1
		H815.5z M909.2,281.2c-1.7,1.5-3.9,2.7-6.4,3.6c-2.6,0.9-5.3,1.6-8.3,2.2c-3,0.6-6,1-9.3,1.4c-3.2,0.4-6.5,0.9-9.7,1.4
		c-3,0.6-6,1.3-9,2.3c-3,1-5.5,2.2-7.7,3.9c-2.2,1.6-4,3.7-5.3,6.1c-1.3,2.5-2,5.6-2,9.4c0,3.6,0.7,6.7,2,9.1
		c1.3,2.5,3.1,4.4,5.4,5.9c2.3,1.4,5,2.4,8,3c3.1,0.6,6.2,0.9,9.4,0.9c8,0,14.2-1.3,18.6-4c4.4-2.7,7.6-5.9,9.7-9.6
		c2.1-3.7,3.4-7.5,3.9-11.3c0.5-3.8,0.7-6.9,0.7-9.1V281.2z"/>
	<path fill="#AC162C" d="M976.1,205.8h38.6v20.6h0.9c5.1-8.6,11.8-14.8,20-18.7c8.2-3.9,16.6-5.9,25.1-5.9c10.9,0,19.8,1.5,26.7,4.4
		c7,3,12.4,7.1,16.4,12.3c4,5.2,6.8,11.6,8.4,19.1c1.6,7.5,2.4,15.9,2.4,25v90.9h-40.6V270c0-12.2-1.9-21.3-5.7-27.3
		c-3.8-6-10.6-9-20.3-9c-11,0-19,3.3-24,9.9c-5,6.6-7.4,17.4-7.4,32.4v77.4h-40.6V205.8z"/>
	<g>
		<path fill="#AC162C" d="M584.2,180.3v173.2h40.6V202.6C611.8,194.7,598.2,187.2,584.2,180.3z"/>
	</g>
	<path fill="#AC162C" d="M170.3,187.6c23.5-68.9,164.2-94.2,314.1-56.4c90,22.6,163.5,66.5,211.5,109.9
		C674.2,183.5,568.5,101.5,423,73.4C258.6,41.6,96.3,69.5,76.3,142.5C61.7,195.3,125.4,257,223.9,299.3
		C179.7,263.5,158.1,223.2,170.3,187.6z"/>
	<g>
		<path fill="#AC162C" d="M696,216v-66.6h-40.6v20.2C672.7,185.1,686.5,200.9,696,216z"/>
	</g>
</g>
<g>
	<path fill="#AC162C" d="M1186.8,331.9c0,12.3-9.6,21.9-22.2,21.9c-12.4,0-22.3-9.6-22.3-21.9c0-12,9.9-21.6,22.3-21.6
		C1177.2,310.2,1186.8,319.9,1186.8,331.9z M1147.9,331.9c0,9.6,7.1,17.3,16.9,17.3c9.5,0,16.5-7.6,16.5-17.1
		c0-9.6-7-17.4-16.6-17.4C1155.1,314.6,1147.9,322.4,1147.9,331.9z M1161.3,343.2h-5v-21.6c2-0.4,4.7-0.7,8.3-0.7
		c4.1,0,5.9,0.7,7.5,1.6c1.2,0.9,2.1,2.6,2.1,4.7c0,2.4-1.8,4.2-4.5,5v0.3c2.1,0.8,3.3,2.4,4,5.3c0.7,3.3,1.1,4.6,1.6,5.4h-5.4
		c-0.7-0.8-1.1-2.8-1.7-5.3c-0.4-2.4-1.7-3.4-4.5-3.4h-2.4V343.2z M1161.4,330.9h2.4c2.8,0,5-0.9,5-3.2c0-2-1.5-3.3-4.6-3.3
		c-1.3,0-2.2,0.1-2.8,0.3V330.9z"/>
</g>
<polygon fill="#AC162C" points="302,399.6 268.6,504.1 1081.2,504.1 1114.6,399.6 "/>
<g>
	<path fill="#FFFFFF" d="M368.5,428.9h33.6c3.1,0,5.6,0.4,7.5,1.1c1.9,0.8,3.3,1.8,4.2,3.2s1.3,2.9,1.3,4.8c0,1.8-0.4,3.8-1.1,6
		c-0.6,1.9-1.4,3.7-2.5,5.5c-1.1,1.8-2.5,3.4-4.2,4.8c-1.7,1.4-3.7,2.6-6.1,3.4c-2.3,0.9-5,1.3-8.1,1.3H374l-4.8,15.1H354
		L368.5,428.9z M377,449.7h13.5c2.2,0,3.9-0.4,5.1-1.3c1.2-0.9,2.1-2.3,2.8-4.4c0.7-2,0.7-3.5,0-4.4c-0.7-0.9-2.1-1.3-4.2-1.3h-13.5
		L377,449.7z"/>
	<path fill="#FFFFFF" d="M429.5,451.5c1.5-4.7,3.5-8.6,6.1-11.7c2.6-3.1,5.5-5.5,8.8-7.4c3.3-1.8,6.8-3.1,10.7-3.9
		c3.8-0.7,7.8-1.1,11.8-1.1c4,0,7.7,0.4,11,1.1c3.4,0.7,6.1,2,8.2,3.9c2.1,1.8,3.5,4.3,4,7.4c0.6,3.1,0.1,7-1.4,11.7
		s-3.5,8.6-6.1,11.7c-2.6,3.1-5.5,5.5-8.8,7.4c-3.3,1.8-6.9,3.1-10.7,3.9c-3.8,0.7-7.8,1.1-11.8,1.1c-4,0-7.7-0.4-11.1-1.1
		c-3.3-0.7-6.1-2-8.2-3.9c-2.1-1.8-3.5-4.3-4-7.4C427.6,460.1,428,456.2,429.5,451.5z M445.6,451.5c-0.8,2.4-1.1,4.4-1,6.2
		c0.1,1.8,0.6,3.2,1.4,4.3c0.8,1.1,2,2,3.5,2.5c1.5,0.5,3.2,0.8,5.2,0.8c4.1,0,7.8-1.1,11-3.4c3.2-2.2,5.6-5.7,7.1-10.5
		c0.8-2.3,1.1-4.4,1-6.1c-0.1-1.8-0.6-3.2-1.4-4.3c-0.8-1.1-2-2-3.5-2.6c-1.5-0.6-3.2-0.9-5.3-0.9c-4.1,0-7.7,1.1-10.9,3.4
		C449.5,443.4,447.1,446.9,445.6,451.5z"/>
	<path fill="#FFFFFF" d="M516.8,428.9h36.5c2.8,0,5.1,0.3,6.8,0.9c1.7,0.6,3,1.5,3.9,2.6c0.9,1.1,1.3,2.4,1.3,4
		c0,1.5-0.2,3.3-0.8,5.2c-1,3-2.4,5.3-4.4,7c-2,1.7-4,2.8-6.2,3.3l-0.1,0.1c1.3,0.5,2.2,1.3,2.8,2.6c0.6,1.2,0.6,3.1,0.1,5.5
		c-0.5,2.2-1,4.1-1.4,5.6c-0.4,1.5-0.6,2.8-0.8,3.9c-0.1,1.1-0.2,2-0.1,2.7c0.1,0.7,0.3,1.3,0.6,1.9h-16.6c-0.1-1,0-2.1,0.3-3.3
		s0.6-2.4,1-3.4c0.6-1.8,0.9-3.2,1-4.3s-0.1-1.9-0.4-2.5c-0.4-0.6-0.9-1-1.6-1.2c-0.7-0.2-1.5-0.3-2.5-0.3h-13.9l-4.8,15.1h-15.2
		L516.8,428.9z M525.5,448.9h14.6c1.9,0,3.5-0.4,4.7-1.3c1.2-0.9,2.1-2.1,2.6-3.7c0.5-1.5,0.4-2.7-0.3-3.5c-0.6-0.9-1.9-1.3-3.8-1.3
		h-14.6L525.5,448.9z"/>
	<path fill="#FFFFFF" d="M585.2,428.9h48.6l-3.2,10.1h-16.7l-11.3,35.1h-15.2l11.3-35.1h-16.7L585.2,428.9z"/>
	<path fill="#FFFFFF" d="M662.1,428.9h18.5l5,45.2h-16.3l-0.4-7.3h-19.9l-5.1,7.3h-16.3L662.1,428.9z M667.7,440.3h-0.1l-11.9,17.1
		h12.7L667.7,440.3z"/>
	<path fill="#FFFFFF" d="M717,428.9h37.7c2.7,0,4.8,0.4,6.3,1.1c1.5,0.8,2.5,1.7,3.1,2.8c0.6,1.1,0.8,2.3,0.7,3.6
		c-0.1,1.3-0.3,2.5-0.7,3.5c-0.7,2.2-1.9,4.1-3.4,5.7c-1.6,1.7-3.3,2.8-5.1,3.4l0,0.1c2.2,0.5,3.8,1.8,4.6,3.7
		c0.8,1.9,0.7,4.5-0.3,7.7c-0.4,1.4-1.1,2.8-2.1,4.4c-0.9,1.6-2.2,3-3.8,4.4c-1.6,1.4-3.6,2.5-6.1,3.4c-2.4,0.9-5.4,1.4-8.9,1.4
		h-36.4L717,428.9z M737,464.4c1.6,0,3-0.4,4.3-1.2c1.2-0.8,2.1-2,2.6-3.5c0.5-1.5,0.4-2.6-0.4-3.4c-0.7-0.8-1.9-1.1-3.5-1.1h-16.3
		l-2.9,9.2H737z M726.5,446.3h15.1c1.6,0,2.9-0.4,3.9-1.1c1-0.8,1.6-1.7,2-2.7c0.3-1,0.2-1.9-0.2-2.7c-0.5-0.8-1.5-1.1-3.2-1.1H729
		L726.5,446.3z"/>
	<path fill="#FFFFFF" d="M791.3,428.9h15.2l-14.5,45.2h-15.2L791.3,428.9z"/>
	<path fill="#FFFFFF" d="M829.8,428.9h15.2l-11.2,34.7h27.7l-3.4,10.5h-42.9L829.8,428.9z"/>
	<path fill="#FFFFFF" d="M892.4,428.9h15.2L893,474.1h-15.2L892.4,428.9z"/>
	<path fill="#FFFFFF" d="M926.2,428.9h48.6l-3.2,10.1h-16.7l-11.3,35.1h-15.2l11.3-35.1H923L926.2,428.9z"/>
	<path fill="#FFFFFF" d="M997,459.9l-10.2-31h17.6l4,19.2l16.4-19.2h17.6l-30.2,31l-4.5,14.2h-15.2L997,459.9z"/>
</g>
</svg>
