<svg xmlns="http://www.w3.org/2000/svg" xml:space="preserve" width="1000" height="1000"><path fill="#00000" d="M1000 799.525C1000 909.97 910.97 1000 800.525 1000h-600.05C90.032 1000 0 909.97 0 799.525v-600.05C0 89.032 90.032 0 200.475 0h600.051C910.97 0 1000 89.032 1000 199.475v600.05z"/><path fill="#FFF" d="m761.901 262.951.008-.008c-55.849-48.458-134.014-76.433-224.87-76.433-236.839.012-397.907 181.564-397.907 181.564l45.378 71.558s22.042 2.094 8.744-40.059C204.739 378.033 231 349.021 268 315.564v476.635C256 797.496 230.231 806 247.275 827h130.412C394.901 806 367 797.006 346 792.199V679.742s92.031 34.867 188.405 34.867c84.659 0 163.022-25.037 220.313-70.236 57.3-44.93 94.918-112.027 94.669-188.718.177-75.312-31.62-144.434-87.486-192.704zM692 606.741v.012c-37 38.858-99.492 63.425-165.955 63.38C451.882 670.178 391 655.902 346 635.744V278.166c50-31.933 121.216-51.597 180.448-51.48 71.972.064 129.782 27.083 168.014 68.058 38.126 41.232 59.222 96.012 59.411 159.674C753.627 516.459 729 567.563 692 606.741z"/></svg>
